<mxfile host="app.diagrams.net" modified="2023-07-05T22:57:34.548Z" agent="Mozilla/5.0 (Windows NT 10.0; Win64; x64) AppleWebKit/537.36 (KHTML, like Gecko) Chrome/114.0.0.0 Safari/537.36" etag="xSigkKZRDzuqhgQY11cl" version="21.6.1" type="device">
  <diagram id="C5RBs43oDa-KdzZeNtuy" name="Page-1">
    <mxGraphModel dx="1050" dy="581" grid="1" gridSize="10" guides="1" tooltips="1" connect="1" arrows="1" fold="1" page="1" pageScale="1" pageWidth="827" pageHeight="1169" math="0" shadow="0">
      <root>
        <mxCell id="WIyWlLk6GJQsqaUBKTNV-0" />
        <mxCell id="WIyWlLk6GJQsqaUBKTNV-1" parent="WIyWlLk6GJQsqaUBKTNV-0" />
        <mxCell id="WIyWlLk6GJQsqaUBKTNV-4" value="Sí" style="rounded=0;html=1;jettySize=auto;orthogonalLoop=1;fontSize=11;endArrow=block;endFill=0;endSize=8;strokeWidth=1;shadow=0;labelBackgroundColor=none;edgeStyle=orthogonalEdgeStyle;" parent="WIyWlLk6GJQsqaUBKTNV-1" source="WIyWlLk6GJQsqaUBKTNV-6" target="WIyWlLk6GJQsqaUBKTNV-10" edge="1">
          <mxGeometry y="20" relative="1" as="geometry">
            <mxPoint as="offset" />
          </mxGeometry>
        </mxCell>
        <mxCell id="SGv-4O4N5S1pG0Y7rMj7-10" value="No" style="edgeLabel;html=1;align=center;verticalAlign=middle;resizable=0;points=[];" vertex="1" connectable="0" parent="WIyWlLk6GJQsqaUBKTNV-4">
          <mxGeometry x="-0.136" y="25" relative="1" as="geometry">
            <mxPoint x="171" y="235" as="offset" />
          </mxGeometry>
        </mxCell>
        <mxCell id="WIyWlLk6GJQsqaUBKTNV-5" value="No" style="edgeStyle=orthogonalEdgeStyle;rounded=0;html=1;jettySize=auto;orthogonalLoop=1;fontSize=11;endArrow=block;endFill=0;endSize=8;strokeWidth=1;shadow=0;labelBackgroundColor=none;" parent="WIyWlLk6GJQsqaUBKTNV-1" source="WIyWlLk6GJQsqaUBKTNV-6" target="WIyWlLk6GJQsqaUBKTNV-7" edge="1">
          <mxGeometry y="10" relative="1" as="geometry">
            <mxPoint as="offset" />
          </mxGeometry>
        </mxCell>
        <mxCell id="SGv-4O4N5S1pG0Y7rMj7-34" style="edgeStyle=orthogonalEdgeStyle;rounded=0;orthogonalLoop=1;jettySize=auto;html=1;exitX=1;exitY=0.25;exitDx=0;exitDy=0;entryX=1;entryY=0.5;entryDx=0;entryDy=0;" edge="1" parent="WIyWlLk6GJQsqaUBKTNV-1" source="WIyWlLk6GJQsqaUBKTNV-7" target="SGv-4O4N5S1pG0Y7rMj7-27">
          <mxGeometry relative="1" as="geometry" />
        </mxCell>
        <mxCell id="WIyWlLk6GJQsqaUBKTNV-7" value="No se ha introducido nombre" style="rounded=1;whiteSpace=wrap;html=1;fontSize=12;glass=0;strokeWidth=1;shadow=0;" parent="WIyWlLk6GJQsqaUBKTNV-1" vertex="1">
          <mxGeometry x="360" y="200" width="120" height="40" as="geometry" />
        </mxCell>
        <mxCell id="WIyWlLk6GJQsqaUBKTNV-9" value="No" style="edgeStyle=orthogonalEdgeStyle;rounded=0;html=1;jettySize=auto;orthogonalLoop=1;fontSize=11;endArrow=block;endFill=0;endSize=8;strokeWidth=1;shadow=0;labelBackgroundColor=none;" parent="WIyWlLk6GJQsqaUBKTNV-1" source="WIyWlLk6GJQsqaUBKTNV-10" target="WIyWlLk6GJQsqaUBKTNV-12" edge="1">
          <mxGeometry y="10" relative="1" as="geometry">
            <mxPoint as="offset" />
          </mxGeometry>
        </mxCell>
        <mxCell id="SGv-4O4N5S1pG0Y7rMj7-3" value="" style="edgeStyle=orthogonalEdgeStyle;rounded=0;orthogonalLoop=1;jettySize=auto;html=1;" edge="1" parent="WIyWlLk6GJQsqaUBKTNV-1" source="WIyWlLk6GJQsqaUBKTNV-10" target="SGv-4O4N5S1pG0Y7rMj7-2">
          <mxGeometry relative="1" as="geometry" />
        </mxCell>
        <mxCell id="WIyWlLk6GJQsqaUBKTNV-10" value="¿Se ha introducido dirección?" style="rhombus;whiteSpace=wrap;html=1;shadow=0;fontFamily=Helvetica;fontSize=12;align=center;strokeWidth=1;spacing=6;spacingTop=-4;" parent="WIyWlLk6GJQsqaUBKTNV-1" vertex="1">
          <mxGeometry x="70" y="310" width="160" height="80" as="geometry" />
        </mxCell>
        <mxCell id="SGv-4O4N5S1pG0Y7rMj7-35" style="edgeStyle=orthogonalEdgeStyle;rounded=0;orthogonalLoop=1;jettySize=auto;html=1;exitX=1;exitY=0.5;exitDx=0;exitDy=0;" edge="1" parent="WIyWlLk6GJQsqaUBKTNV-1" source="WIyWlLk6GJQsqaUBKTNV-12">
          <mxGeometry relative="1" as="geometry">
            <mxPoint x="170" y="10" as="targetPoint" />
            <Array as="points">
              <mxPoint x="650" y="350" />
              <mxPoint x="650" y="20" />
              <mxPoint x="171" y="20" />
            </Array>
          </mxGeometry>
        </mxCell>
        <mxCell id="WIyWlLk6GJQsqaUBKTNV-12" value="No se ha introducido dirección" style="rounded=1;whiteSpace=wrap;html=1;fontSize=12;glass=0;strokeWidth=1;shadow=0;" parent="WIyWlLk6GJQsqaUBKTNV-1" vertex="1">
          <mxGeometry x="360" y="330" width="120" height="40" as="geometry" />
        </mxCell>
        <mxCell id="9QPblURgfRTHFtlZenbc-1" value="Introducir nombre, apellido, organización, email, contraseñay teléfono" style="rounded=1;whiteSpace=wrap;html=1;fontSize=12;glass=0;strokeWidth=1;shadow=0;" parent="WIyWlLk6GJQsqaUBKTNV-1" vertex="1">
          <mxGeometry x="60" y="50" width="160" height="70" as="geometry" />
        </mxCell>
        <mxCell id="SGv-4O4N5S1pG0Y7rMj7-0" value="" style="rounded=0;html=1;jettySize=auto;orthogonalLoop=1;fontSize=11;endArrow=block;endFill=0;endSize=8;strokeWidth=1;shadow=0;labelBackgroundColor=none;edgeStyle=orthogonalEdgeStyle;exitX=0.5;exitY=1;exitDx=0;exitDy=0;" edge="1" parent="WIyWlLk6GJQsqaUBKTNV-1" source="9QPblURgfRTHFtlZenbc-1" target="WIyWlLk6GJQsqaUBKTNV-6">
          <mxGeometry x="0.3846" y="20" relative="1" as="geometry">
            <mxPoint as="offset" />
            <mxPoint x="150" y="80" as="sourcePoint" />
            <mxPoint x="149.76" y="170" as="targetPoint" />
            <Array as="points" />
          </mxGeometry>
        </mxCell>
        <mxCell id="WIyWlLk6GJQsqaUBKTNV-6" value="¿Se ha introducido nombre?" style="rhombus;whiteSpace=wrap;html=1;shadow=0;fontFamily=Helvetica;fontSize=12;align=center;strokeWidth=1;spacing=6;spacingTop=-4;" parent="WIyWlLk6GJQsqaUBKTNV-1" vertex="1">
          <mxGeometry x="40" y="180" width="180" height="80" as="geometry" />
        </mxCell>
        <mxCell id="SGv-4O4N5S1pG0Y7rMj7-1" value="Organización registrada" style="rounded=1;whiteSpace=wrap;html=1;fontSize=12;glass=0;strokeWidth=1;shadow=0;" vertex="1" parent="WIyWlLk6GJQsqaUBKTNV-1">
          <mxGeometry x="70" y="1110" width="120" height="40" as="geometry" />
        </mxCell>
        <mxCell id="SGv-4O4N5S1pG0Y7rMj7-5" value="" style="edgeStyle=orthogonalEdgeStyle;rounded=0;orthogonalLoop=1;jettySize=auto;html=1;" edge="1" parent="WIyWlLk6GJQsqaUBKTNV-1" source="SGv-4O4N5S1pG0Y7rMj7-2" target="SGv-4O4N5S1pG0Y7rMj7-4">
          <mxGeometry relative="1" as="geometry" />
        </mxCell>
        <mxCell id="SGv-4O4N5S1pG0Y7rMj7-7" value="" style="edgeStyle=orthogonalEdgeStyle;rounded=0;orthogonalLoop=1;jettySize=auto;html=1;" edge="1" parent="WIyWlLk6GJQsqaUBKTNV-1" source="SGv-4O4N5S1pG0Y7rMj7-2" target="SGv-4O4N5S1pG0Y7rMj7-6">
          <mxGeometry relative="1" as="geometry" />
        </mxCell>
        <mxCell id="SGv-4O4N5S1pG0Y7rMj7-2" value="¿Se ha introducido código postal?" style="rhombus;whiteSpace=wrap;html=1;shadow=0;fontFamily=Helvetica;fontSize=12;align=center;strokeWidth=1;spacing=6;spacingTop=-4;" vertex="1" parent="WIyWlLk6GJQsqaUBKTNV-1">
          <mxGeometry x="10" y="450" width="220" height="80" as="geometry" />
        </mxCell>
        <mxCell id="SGv-4O4N5S1pG0Y7rMj7-33" style="edgeStyle=orthogonalEdgeStyle;rounded=0;orthogonalLoop=1;jettySize=auto;html=1;exitX=1;exitY=0.5;exitDx=0;exitDy=0;" edge="1" parent="WIyWlLk6GJQsqaUBKTNV-1" source="SGv-4O4N5S1pG0Y7rMj7-4">
          <mxGeometry relative="1" as="geometry">
            <mxPoint x="170" y="10" as="targetPoint" />
            <Array as="points">
              <mxPoint x="680" y="490" />
              <mxPoint x="680" y="30" />
              <mxPoint x="171" y="30" />
            </Array>
          </mxGeometry>
        </mxCell>
        <mxCell id="SGv-4O4N5S1pG0Y7rMj7-4" value="No se ha introducido código postal" style="rounded=1;whiteSpace=wrap;html=1;shadow=0;strokeWidth=1;spacing=6;spacingTop=-4;" vertex="1" parent="WIyWlLk6GJQsqaUBKTNV-1">
          <mxGeometry x="360" y="460" width="120" height="60" as="geometry" />
        </mxCell>
        <mxCell id="SGv-4O4N5S1pG0Y7rMj7-9" value="" style="edgeStyle=orthogonalEdgeStyle;rounded=0;orthogonalLoop=1;jettySize=auto;html=1;" edge="1" parent="WIyWlLk6GJQsqaUBKTNV-1" source="SGv-4O4N5S1pG0Y7rMj7-6" target="SGv-4O4N5S1pG0Y7rMj7-8">
          <mxGeometry relative="1" as="geometry" />
        </mxCell>
        <mxCell id="SGv-4O4N5S1pG0Y7rMj7-16" value="" style="edgeStyle=orthogonalEdgeStyle;rounded=0;orthogonalLoop=1;jettySize=auto;html=1;" edge="1" parent="WIyWlLk6GJQsqaUBKTNV-1" source="SGv-4O4N5S1pG0Y7rMj7-6" target="SGv-4O4N5S1pG0Y7rMj7-15">
          <mxGeometry relative="1" as="geometry" />
        </mxCell>
        <mxCell id="SGv-4O4N5S1pG0Y7rMj7-6" value="¿Se ha introducido ciudad?" style="rhombus;whiteSpace=wrap;html=1;shadow=0;fontFamily=Helvetica;fontSize=12;align=center;strokeWidth=1;spacing=6;spacingTop=-4;" vertex="1" parent="WIyWlLk6GJQsqaUBKTNV-1">
          <mxGeometry x="20" y="575" width="210" height="80" as="geometry" />
        </mxCell>
        <mxCell id="SGv-4O4N5S1pG0Y7rMj7-18" value="" style="edgeStyle=orthogonalEdgeStyle;rounded=0;orthogonalLoop=1;jettySize=auto;html=1;" edge="1" parent="WIyWlLk6GJQsqaUBKTNV-1" source="SGv-4O4N5S1pG0Y7rMj7-8" target="SGv-4O4N5S1pG0Y7rMj7-17">
          <mxGeometry relative="1" as="geometry" />
        </mxCell>
        <mxCell id="SGv-4O4N5S1pG0Y7rMj7-23" value="" style="edgeStyle=orthogonalEdgeStyle;rounded=0;orthogonalLoop=1;jettySize=auto;html=1;" edge="1" parent="WIyWlLk6GJQsqaUBKTNV-1" source="SGv-4O4N5S1pG0Y7rMj7-8" target="SGv-4O4N5S1pG0Y7rMj7-22">
          <mxGeometry relative="1" as="geometry" />
        </mxCell>
        <mxCell id="SGv-4O4N5S1pG0Y7rMj7-8" value="¿Se ha introducido email?" style="rhombus;whiteSpace=wrap;html=1;shadow=0;fontFamily=Helvetica;fontSize=12;align=center;strokeWidth=1;spacing=6;spacingTop=-4;" vertex="1" parent="WIyWlLk6GJQsqaUBKTNV-1">
          <mxGeometry x="50" y="700" width="160" height="80" as="geometry" />
        </mxCell>
        <mxCell id="SGv-4O4N5S1pG0Y7rMj7-11" value="No" style="edgeLabel;html=1;align=center;verticalAlign=middle;resizable=0;points=[];" vertex="1" connectable="0" parent="WIyWlLk6GJQsqaUBKTNV-1">
          <mxGeometry x="310" y="450" as="geometry">
            <mxPoint x="-27" y="149" as="offset" />
          </mxGeometry>
        </mxCell>
        <mxCell id="SGv-4O4N5S1pG0Y7rMj7-12" value="Sí" style="edgeLabel;html=1;align=center;verticalAlign=middle;resizable=0;points=[];" vertex="1" connectable="0" parent="WIyWlLk6GJQsqaUBKTNV-1">
          <mxGeometry x="290" y="350" as="geometry">
            <mxPoint x="-156" y="58" as="offset" />
          </mxGeometry>
        </mxCell>
        <mxCell id="SGv-4O4N5S1pG0Y7rMj7-32" style="edgeStyle=orthogonalEdgeStyle;rounded=0;orthogonalLoop=1;jettySize=auto;html=1;exitX=1;exitY=0.5;exitDx=0;exitDy=0;" edge="1" parent="WIyWlLk6GJQsqaUBKTNV-1" source="SGv-4O4N5S1pG0Y7rMj7-15">
          <mxGeometry relative="1" as="geometry">
            <mxPoint x="170" y="10" as="targetPoint" />
            <Array as="points">
              <mxPoint x="700" y="615" />
              <mxPoint x="700" y="20" />
              <mxPoint x="171" y="20" />
            </Array>
          </mxGeometry>
        </mxCell>
        <mxCell id="SGv-4O4N5S1pG0Y7rMj7-15" value="No se ha introducido ciudad" style="rounded=1;whiteSpace=wrap;html=1;shadow=0;strokeWidth=1;spacing=6;spacingTop=-4;" vertex="1" parent="WIyWlLk6GJQsqaUBKTNV-1">
          <mxGeometry x="354" y="585" width="120" height="60" as="geometry" />
        </mxCell>
        <mxCell id="SGv-4O4N5S1pG0Y7rMj7-31" style="edgeStyle=orthogonalEdgeStyle;rounded=0;orthogonalLoop=1;jettySize=auto;html=1;" edge="1" parent="WIyWlLk6GJQsqaUBKTNV-1" source="SGv-4O4N5S1pG0Y7rMj7-17" target="SGv-4O4N5S1pG0Y7rMj7-27">
          <mxGeometry relative="1" as="geometry">
            <mxPoint x="240" y="40" as="targetPoint" />
            <Array as="points">
              <mxPoint x="720" y="740" />
              <mxPoint x="720" y="15" />
            </Array>
          </mxGeometry>
        </mxCell>
        <mxCell id="SGv-4O4N5S1pG0Y7rMj7-17" value="No se ha introducido email" style="rounded=1;whiteSpace=wrap;html=1;shadow=0;strokeWidth=1;spacing=6;spacingTop=-4;" vertex="1" parent="WIyWlLk6GJQsqaUBKTNV-1">
          <mxGeometry x="350" y="710" width="120" height="60" as="geometry" />
        </mxCell>
        <mxCell id="SGv-4O4N5S1pG0Y7rMj7-21" value="No" style="edgeLabel;html=1;align=center;verticalAlign=middle;resizable=0;points=[];" vertex="1" connectable="0" parent="WIyWlLk6GJQsqaUBKTNV-1">
          <mxGeometry x="300" y="710" as="geometry">
            <mxPoint x="-27" y="149" as="offset" />
          </mxGeometry>
        </mxCell>
        <mxCell id="SGv-4O4N5S1pG0Y7rMj7-25" value="" style="edgeStyle=orthogonalEdgeStyle;rounded=0;orthogonalLoop=1;jettySize=auto;html=1;" edge="1" parent="WIyWlLk6GJQsqaUBKTNV-1" source="SGv-4O4N5S1pG0Y7rMj7-22" target="SGv-4O4N5S1pG0Y7rMj7-24">
          <mxGeometry relative="1" as="geometry" />
        </mxCell>
        <mxCell id="SGv-4O4N5S1pG0Y7rMj7-38" value="" style="edgeStyle=orthogonalEdgeStyle;rounded=0;orthogonalLoop=1;jettySize=auto;html=1;" edge="1" parent="WIyWlLk6GJQsqaUBKTNV-1" source="SGv-4O4N5S1pG0Y7rMj7-22" target="SGv-4O4N5S1pG0Y7rMj7-37">
          <mxGeometry relative="1" as="geometry" />
        </mxCell>
        <mxCell id="SGv-4O4N5S1pG0Y7rMj7-22" value="¿Se ha introducido teléfono?" style="rhombus;whiteSpace=wrap;html=1;shadow=0;fontFamily=Helvetica;fontSize=12;align=center;strokeWidth=1;spacing=6;spacingTop=-4;" vertex="1" parent="WIyWlLk6GJQsqaUBKTNV-1">
          <mxGeometry x="50" y="830" width="160" height="80" as="geometry" />
        </mxCell>
        <mxCell id="SGv-4O4N5S1pG0Y7rMj7-29" style="edgeStyle=orthogonalEdgeStyle;rounded=0;orthogonalLoop=1;jettySize=auto;html=1;exitX=1;exitY=0.5;exitDx=0;exitDy=0;entryX=1;entryY=0.5;entryDx=0;entryDy=0;" edge="1" parent="WIyWlLk6GJQsqaUBKTNV-1" source="SGv-4O4N5S1pG0Y7rMj7-24" target="SGv-4O4N5S1pG0Y7rMj7-27">
          <mxGeometry relative="1" as="geometry">
            <mxPoint x="610" y="50" as="targetPoint" />
            <Array as="points">
              <mxPoint x="460" y="880" />
              <mxPoint x="760" y="880" />
              <mxPoint x="760" y="15" />
            </Array>
          </mxGeometry>
        </mxCell>
        <mxCell id="SGv-4O4N5S1pG0Y7rMj7-24" value="No se ha introducido teléfono" style="rounded=1;whiteSpace=wrap;html=1;shadow=0;strokeWidth=1;spacing=6;spacingTop=-4;" vertex="1" parent="WIyWlLk6GJQsqaUBKTNV-1">
          <mxGeometry x="340" y="840" width="120" height="60" as="geometry" />
        </mxCell>
        <mxCell id="SGv-4O4N5S1pG0Y7rMj7-26" value="No" style="edgeLabel;html=1;align=center;verticalAlign=middle;resizable=0;points=[];" vertex="1" connectable="0" parent="WIyWlLk6GJQsqaUBKTNV-1">
          <mxGeometry x="300" y="570" as="geometry">
            <mxPoint x="-27" y="149" as="offset" />
          </mxGeometry>
        </mxCell>
        <mxCell id="SGv-4O4N5S1pG0Y7rMj7-27" value="" style="ellipse;html=1;shape=startState;fillColor=#000000;strokeColor=#ff0000;" vertex="1" parent="WIyWlLk6GJQsqaUBKTNV-1">
          <mxGeometry x="135" width="30" height="30" as="geometry" />
        </mxCell>
        <mxCell id="SGv-4O4N5S1pG0Y7rMj7-28" value="" style="edgeStyle=orthogonalEdgeStyle;html=1;verticalAlign=bottom;endArrow=open;endSize=8;strokeColor=#ff0000;rounded=0;entryX=0.563;entryY=-0.014;entryDx=0;entryDy=0;entryPerimeter=0;" edge="1" source="SGv-4O4N5S1pG0Y7rMj7-27" parent="WIyWlLk6GJQsqaUBKTNV-1" target="9QPblURgfRTHFtlZenbc-1">
          <mxGeometry relative="1" as="geometry">
            <mxPoint x="365" y="100" as="targetPoint" />
          </mxGeometry>
        </mxCell>
        <mxCell id="SGv-4O4N5S1pG0Y7rMj7-40" value="" style="edgeStyle=orthogonalEdgeStyle;rounded=0;orthogonalLoop=1;jettySize=auto;html=1;" edge="1" parent="WIyWlLk6GJQsqaUBKTNV-1" source="SGv-4O4N5S1pG0Y7rMj7-37" target="SGv-4O4N5S1pG0Y7rMj7-39">
          <mxGeometry relative="1" as="geometry" />
        </mxCell>
        <mxCell id="SGv-4O4N5S1pG0Y7rMj7-42" style="edgeStyle=orthogonalEdgeStyle;rounded=0;orthogonalLoop=1;jettySize=auto;html=1;exitX=0.5;exitY=1;exitDx=0;exitDy=0;entryX=0.5;entryY=0;entryDx=0;entryDy=0;" edge="1" parent="WIyWlLk6GJQsqaUBKTNV-1" source="SGv-4O4N5S1pG0Y7rMj7-37" target="SGv-4O4N5S1pG0Y7rMj7-1">
          <mxGeometry relative="1" as="geometry" />
        </mxCell>
        <mxCell id="SGv-4O4N5S1pG0Y7rMj7-37" value="¿Se ha introducido director?" style="rhombus;whiteSpace=wrap;html=1;shadow=0;fontFamily=Helvetica;fontSize=12;align=center;strokeWidth=1;spacing=6;spacingTop=-4;" vertex="1" parent="WIyWlLk6GJQsqaUBKTNV-1">
          <mxGeometry x="50" y="990" width="160" height="80" as="geometry" />
        </mxCell>
        <mxCell id="SGv-4O4N5S1pG0Y7rMj7-41" style="edgeStyle=orthogonalEdgeStyle;rounded=0;orthogonalLoop=1;jettySize=auto;html=1;exitX=1;exitY=0.5;exitDx=0;exitDy=0;entryX=1;entryY=0.5;entryDx=0;entryDy=0;" edge="1" parent="WIyWlLk6GJQsqaUBKTNV-1" source="SGv-4O4N5S1pG0Y7rMj7-39" target="SGv-4O4N5S1pG0Y7rMj7-27">
          <mxGeometry relative="1" as="geometry">
            <mxPoint x="810" y="230" as="targetPoint" />
            <Array as="points">
              <mxPoint x="800" y="1030" />
              <mxPoint x="800" y="15" />
            </Array>
          </mxGeometry>
        </mxCell>
        <mxCell id="SGv-4O4N5S1pG0Y7rMj7-39" value="No se ha introducido director" style="rounded=1;whiteSpace=wrap;html=1;shadow=0;strokeWidth=1;spacing=6;spacingTop=-4;" vertex="1" parent="WIyWlLk6GJQsqaUBKTNV-1">
          <mxGeometry x="310" y="1000" width="120" height="60" as="geometry" />
        </mxCell>
      </root>
    </mxGraphModel>
  </diagram>
</mxfile>
